<?xml version="1.0" standalone="no"?>
<!DOCTYPE svg PUBLIC "-//W3C//DTD SVG 20010904//EN"
 "http://www.w3.org/TR/2001/REC-SVG-20010904/DTD/svg10.dtd">
<svg version="1.0" xmlns="http://www.w3.org/2000/svg"
 width="866.000000pt" height="650.000000pt" viewBox="0 0 866.000000 650.000000"
 preserveAspectRatio="xMidYMid meet">

<g transform="translate(0.000000,650.000000) scale(0.100000,-0.100000)"
fill="#000000" stroke="none">
<path d="M4315 4498 c-2 -7 -11 -38 -21 -68 -49 -157 -86 -195 -249 -250 -43
-15 -81 -32 -82 -37 -2 -6 37 -25 88 -42 50 -18 109 -43 130 -57 43 -27 81
-93 118 -206 13 -38 27 -68 32 -68 4 0 16 26 25 58 29 101 72 180 115 212 22
16 83 43 135 60 52 18 93 37 92 42 -2 6 -40 22 -83 37 -160 54 -197 90 -249
249 -26 77 -41 99 -51 70z"/>
<path d="M3620 4064 c-291 -77 -531 -184 -618 -277 -20 -21 -21 -28 -11 -50
28 -61 177 -128 282 -126 l62 1 -40 18 c-21 10 -45 26 -52 36 -7 10 -20 15
-33 11 -44 -11 -6 13 58 37 129 48 251 74 457 96 161 17 215 30 215 51 0 10
-18 30 -40 46 -22 15 -61 59 -86 96 -25 38 -56 72 -70 77 -14 6 -26 10 -27 9
-1 0 -45 -11 -97 -25z"/>
<path d="M4896 4069 c-14 -11 -35 -37 -45 -57 -22 -42 -88 -112 -107 -112 -12
0 -24 -22 -24 -45 0 -17 61 -29 242 -49 75 -9 172 -23 215 -32 94 -19 256 -71
280 -90 16 -13 15 -13 -9 -5 -22 8 -28 7 -33 -8 -3 -9 -24 -27 -48 -39 l-42
-22 75 4 c91 4 172 33 228 82 55 47 55 71 0 116 -109 87 -265 158 -501 227
-186 54 -198 56 -231 30z"/>
<path d="M1342 4015 c-130 -29 -267 -116 -359 -226 -57 -70 -127 -214 -147
-306 -62 -279 39 -571 256 -746 68 -54 105 -74 198 -108 58 -21 81 -23 220
-23 125 1 171 5 235 23 93 24 224 86 278 131 l37 31 0 168 c0 193 2 200 86
237 30 13 54 26 54 29 0 3 -158 5 -351 5 -270 0 -350 -3 -347 -12 3 -7 30 -20
62 -29 70 -21 120 -54 142 -94 13 -25 15 -59 12 -202 -4 -207 -4 -209 -101
-207 -167 3 -312 148 -379 379 -33 114 -33 343 0 458 47 163 145 305 248 357
65 32 176 40 240 15 109 -42 221 -177 266 -322 35 -114 45 -99 54 86 4 70 4
147 0 172 l-7 45 -65 12 c-36 7 -100 30 -142 51 -42 21 -108 49 -147 61 -91
28 -254 36 -343 15z"/>
<path d="M7610 3904 c-107 -24 -237 -53 -287 -65 -51 -11 -93 -24 -93 -27 0
-4 24 -16 53 -27 85 -33 88 -43 85 -345 l-3 -252 -311 260 -311 260 -139 -20
c-76 -11 -143 -24 -148 -29 -9 -8 1 -13 70 -39 63 -23 64 -28 64 -438 0 -238
-4 -381 -11 -399 -14 -38 -46 -71 -92 -94 -21 -11 -35 -24 -32 -29 8 -14 605
-13 605 0 0 5 -17 18 -37 29 -47 23 -68 46 -88 94 -12 30 -15 87 -15 318 0
172 4 279 9 277 6 -1 107 -84 225 -183 204 -170 215 -182 216 -215 1 -55 28
-156 58 -218 45 -93 162 -197 244 -217 l27 -7 3 623 3 624 23 43 c13 24 43 57
67 74 48 34 56 49 28 47 -10 0 -106 -20 -213 -45z"/>
<path d="M4203 3695 c-199 -54 -284 -245 -192 -432 35 -72 54 -89 269 -238 85
-59 167 -118 183 -133 66 -63 48 -185 -35 -228 -49 -25 -168 -15 -237 21 -71
36 -147 115 -195 204 -22 39 -44 71 -49 71 -6 0 -8 -51 -5 -127 3 -112 7 -135
30 -184 l26 -57 66 5 c44 4 85 0 123 -10 90 -24 171 -30 248 -16 82 14 116 27
170 66 83 61 131 213 106 335 -26 128 -66 172 -317 344 -100 68 -189 133 -199
143 -28 32 -35 85 -16 123 24 49 73 70 148 65 87 -6 144 -41 192 -119 21 -32
55 -71 75 -84 50 -34 106 -57 106 -44 0 20 -60 166 -93 225 -32 57 -35 60 -69
57 -19 -2 -72 4 -118 12 -99 19 -148 19 -217 1z"/>
<path d="M2177 3540 c25 -23 46 -56 52 -77 6 -21 11 -125 11 -231 l0 -193 67
52 c37 28 86 61 110 72 l43 21 0 117 c0 147 2 149 131 149 140 0 194 -28 251
-127 16 -29 32 -53 35 -53 10 0 -4 125 -22 186 l-17 61 -208 6 c-157 5 -241
13 -344 32 -74 14 -139 25 -143 25 -4 0 12 -18 34 -40z"/>
<path d="M2950 3510 c0 -6 11 -15 25 -22 52 -23 55 -48 55 -397 0 -356 -3
-377 -60 -406 -17 -9 -28 -20 -25 -25 8 -13 385 -13 385 0 0 5 -13 16 -30 25
-16 8 -34 24 -40 35 -14 26 -25 544 -11 536 5 -4 118 -146 251 -317 134 -170
257 -321 275 -335 32 -24 94 -48 103 -39 3 2 -2 15 -11 28 -42 65 -47 115 -47
487 0 344 1 358 20 383 11 14 29 29 40 32 56 18 4 25 -176 25 -192 0 -223 -6
-158 -31 47 -17 55 -59 52 -291 l-3 -211 -84 109 c-47 60 -141 180 -209 267
l-124 157 -114 0 c-71 0 -114 -4 -114 -10z"/>
<path d="M4790 3481 l45 -39 0 -353 c0 -400 0 -404 -73 -481 l-45 -48 29 0
c16 0 81 18 144 41 63 22 143 43 178 46 34 3 65 10 68 14 2 5 -9 15 -26 24
-46 24 -60 67 -60 185 0 141 -1 140 178 140 185 0 178 6 174 -151 -2 -68 -8
-131 -13 -141 -5 -10 -23 -25 -39 -33 -17 -9 -30 -20 -30 -25 0 -12 377 -14
384 -1 3 4 -11 19 -31 32 -24 16 -40 35 -45 57 -5 18 -7 182 -6 364 l3 330 45
39 45 39 -197 0 c-109 0 -198 -4 -198 -8 0 -5 11 -14 24 -20 50 -23 59 -52 57
-184 -1 -70 -7 -128 -13 -135 -13 -16 -294 -18 -318 -3 -11 7 -16 33 -19 100
-5 153 2 177 69 230 l25 19 -200 1 -200 0 45 -39z"/>
<path d="M5843 3513 c4 -3 30 -16 59 -27 33 -13 57 -30 65 -46 9 -19 13 -109
13 -356 0 -379 3 -368 -90 -399 -28 -9 -50 -21 -50 -26 0 -5 107 -9 256 -9
198 0 255 3 252 12 -3 7 -21 16 -40 21 -20 5 -49 22 -64 38 l-29 30 -3 322
c-3 378 -3 378 86 413 28 11 55 24 59 27 3 4 -112 7 -257 7 -145 0 -260 -3
-257 -7z"/>
<path d="M2665 3208 c-83 -11 -176 -42 -270 -91 -95 -50 -224 -172 -268 -254
-16 -29 -26 -53 -23 -53 3 0 35 16 71 36 l65 36 0 -46 c0 -64 -20 -107 -81
-171 -29 -30 -48 -55 -43 -55 5 1 38 8 74 17 48 11 144 17 375 22 l310 6 18
55 c10 30 21 91 23 135 l6 80 -31 -51 c-37 -63 -98 -117 -150 -132 -21 -7 -85
-12 -143 -12 -137 0 -138 1 -138 137 l0 100 53 11 c92 19 126 23 253 31 69 5
128 11 131 15 11 10 -28 45 -63 56 -41 14 -54 35 -54 88 0 36 -3 40 -27 44
-16 2 -55 0 -88 -4z"/>
<path d="M5807 3204 c-4 -4 -7 -26 -7 -49 0 -46 -14 -63 -65 -84 -17 -6 -36
-20 -42 -31 -13 -20 -16 -20 190 -35 l78 -6 -3 103 -3 103 -70 3 c-39 1 -74 0
-78 -4z"/>
<path d="M6240 3013 l0 -79 120 -62 c66 -33 120 -58 120 -56 0 13 -37 75 -76
125 -35 46 -80 88 -151 142 -10 7 -13 -8 -13 -70z"/>
<path d="M4615 2360 c4 -13 -16 -70 -60 -167 -67 -149 -87 -183 -111 -183 -7
0 -16 -4 -19 -10 -4 -6 26 -10 82 -10 l88 0 -32 20 c-38 23 -37 20 -19 65 l15
35 84 0 c80 0 84 -1 95 -25 19 -42 15 -64 -15 -78 -26 -11 -23 -12 40 -15 37
-2 96 -2 130 0 58 3 60 4 35 15 -35 16 -42 28 -124 215 l-69 158 -63 0 c-59 0
-63 -1 -57 -20z m84 -197 c1 -9 -16 -13 -54 -13 -65 0 -66 3 -29 86 l27 59 28
-60 c15 -33 28 -66 28 -72z"/>
<path d="M2225 2360 c3 -5 12 -10 19 -10 7 0 20 -8 30 -19 14 -16 16 -38 14
-157 l-3 -138 -40 -23 -40 -23 148 0 c96 0 146 4 142 10 -3 6 -13 10 -21 10
-8 0 -23 9 -34 20 -18 18 -20 33 -20 148 0 138 3 148 55 176 29 14 23 15 -113
16 -93 0 -141 -4 -137 -10z"/>
<path d="M2825 2355 c45 -32 45 -32 45 -170 0 -122 -2 -137 -20 -155 -11 -11
-26 -20 -34 -20 -8 0 -18 -4 -21 -10 -4 -6 25 -10 81 -10 l87 0 -27 25 c-25
23 -26 27 -26 140 0 63 2 115 4 115 2 0 30 -60 61 -132 32 -73 61 -136 65
-141 12 -14 36 26 89 148 29 66 55 122 58 125 3 3 3 -50 1 -116 -3 -116 -4
-123 -28 -143 l-25 -20 128 -1 c70 0 127 2 127 4 0 2 -16 13 -35 25 l-35 20 0
139 c0 143 4 158 45 181 16 8 -2 10 -80 8 l-99 -2 -41 -92 c-22 -51 -43 -93
-46 -93 -3 0 -25 43 -49 95 l-43 95 -101 0 c-90 -1 -99 -2 -81 -15z"/>
<path d="M3738 2344 l32 -25 0 -135 c0 -121 -2 -136 -20 -154 -11 -11 -26 -20
-34 -20 -8 0 -18 -4 -21 -10 -4 -6 46 -10 142 -10 l148 0 -40 23 c-38 21 -40
26 -43 73 l-3 51 53 5 c123 10 193 93 142 167 -34 48 -86 61 -244 61 l-145 0
33 -26z m209 -19 c45 -32 37 -121 -13 -144 -14 -6 -27 -11 -29 -11 -3 0 -5 38
-5 85 0 91 6 99 47 70z"/>
<path d="M5385 2351 c-51 -23 -101 -80 -114 -128 -38 -143 126 -268 292 -222
42 11 107 70 107 97 0 13 -3 12 -16 -6 -38 -54 -127 -68 -185 -29 -43 29 -63
69 -63 128 0 138 156 192 231 80 l23 -34 0 56 0 56 -32 0 c-18 -1 -46 4 -61
10 -43 17 -137 13 -182 -8z"/>
<path d="M6010 2315 c0 -58 13 -71 32 -31 13 29 55 49 94 44 l29 -3 3 -125 c3
-142 -5 -173 -51 -192 -31 -12 -30 -13 41 -16 39 -1 105 -2 145 0 71 3 72 3
42 18 -48 24 -55 51 -52 190 2 139 2 139 73 125 24 -4 38 -15 49 -35 23 -45
35 -36 35 25 l0 55 -220 0 -220 0 0 -55z"/>
</g>
</svg>
