<?xml version="1.0" standalone="no"?>
<!DOCTYPE svg PUBLIC "-//W3C//DTD SVG 20010904//EN"
 "http://www.w3.org/TR/2001/REC-SVG-20010904/DTD/svg10.dtd">
<svg version="1.0" xmlns="http://www.w3.org/2000/svg"
 width="1920.000000pt" height="1080.000000pt" viewBox="0 0 1920.000000 1080.000000"
 preserveAspectRatio="xMidYMid meet">

<g transform="translate(0.000000,1080.000000) scale(0.100000,-0.100000)"
fill="#000000" stroke="none">
<path d="M0 5400 l0 -5400 9600 0 9600 0 0 5400 0 5400 -9600 0 -9600 0 0
-5400z m10070 4270 c0 -5 -26 -10 -57 -10 -74 0 -59 -19 18 -23 34 -1 58 -7
65 -17 18 -24 65 -112 164 -305 106 -206 175 -338 232 -443 35 -63 39 -79 34
-113 -4 -22 -12 -49 -19 -60 -10 -16 -9 -21 3 -29 11 -8 23 -1 50 29 l35 39
115 6 c63 3 210 9 325 12 116 3 213 8 218 11 29 17 -35 -100 -322 -593 -25
-43 -41 -84 -41 -103 0 -39 73 -177 104 -193 12 -7 80 -15 163 -18 l142 -5
-97 -56 c-446 -257 -659 -378 -727 -415 l-81 -43 -18 24 c-24 32 -40 21 -33
-21 6 -35 2 -38 -37 -34 -11 1 -15 -3 -12 -9 5 -8 -129 -11 -464 -11 -259 0
-469 4 -466 8 3 5 -18 5 -47 1 -69 -10 -115 -9 -67 1 29 6 23 8 -33 9 l-67 1
18 38 c11 20 25 60 31 88 16 67 4 111 -60 223 -27 48 -49 94 -49 102 1 7 13
32 28 54 21 30 35 41 60 43 18 2 32 7 32 13 0 5 -6 8 -12 7 -7 -2 -12 3 -10
10 1 6 -1 12 -5 12 -5 0 -14 4 -21 9 -10 6 -8 18 12 55 32 60 41 121 26 176
-12 43 -82 173 -206 380 -40 66 -75 113 -96 127 -38 24 -124 45 -156 36 -12
-3 -22 -1 -22 5 0 6 -6 17 -13 24 -7 7 -18 26 -25 41 -11 27 -7 39 72 195 132
264 281 551 320 620 20 35 36 69 36 75 0 5 8 3 19 -7 20 -18 51 -12 51 10 0 8
-9 14 -20 14 -11 0 -20 5 -20 10 0 7 162 10 465 10 303 0 465 -3 465 -10z
m1986 -855 c-3 -8 -1 -15 4 -15 6 0 10 -3 10 -7 0 -5 -108 -7 -241 -5 l-241 3
-84 -48 c-98 -55 -107 -65 -201 -233 -11 -19 -43 -75 -70 -125 -60 -107 -71
-141 -46 -148 10 -3 1 -5 -20 -6 -23 -1 -40 -7 -43 -16 -4 -8 -10 -13 -15 -10
-10 7 -49 -67 -49 -93 0 -11 -7 -25 -15 -32 -9 -7 -13 -21 -10 -31 9 -27 -10
-23 -22 4 -11 24 19 81 293 547 l73 125 88 52 88 52 254 0 c221 1 252 -1 247
-14z m2348 -1 c11 -28 7 -35 -15 -24 -16 9 -26 8 -45 -5 -13 -8 -24 -11 -24
-5 0 6 -24 10 -55 10 -30 0 -55 -4 -55 -10 0 -5 -4 -10 -10 -10 -5 0 -10 7
-10 15 0 17 -16 20 -25 5 -4 -6 -11 -8 -16 -5 -5 4 -9 1 -9 -4 0 -6 7 -11 17
-11 15 0 15 -2 1 -17 -9 -10 -18 -27 -21 -38 -3 -13 -5 -9 -6 13 -1 33 -9 40
-28 21 -8 -8 -19 -4 -40 15 l-28 26 -793 0 -793 0 -20 -35 c-23 -39 -10 -37
-222 -40 -59 0 -113 3 -120 7 -6 4 60 8 148 8 150 0 161 1 173 20 9 15 10 26
2 40 -5 10 -10 23 -10 29 0 8 299 11 999 11 902 0 999 -2 1005 -16z m-1 -74
c6 -25 -8 -27 -17 -2 -3 9 -9 24 -13 32 -5 13 -4 13 9 2 9 -7 18 -22 21 -32z
m-2344 -5 l20 -35 165 0 164 0 22 35 22 35 798 0 799 0 7 -22 c3 -12 25 -51
47 -87 22 -36 56 -95 75 -131 19 -36 47 -83 62 -105 15 -22 44 -71 65 -110 22
-38 42 -71 46 -73 7 -3 -45 -101 -98 -185 -14 -22 -36 -60 -50 -85 -15 -26
-34 -60 -44 -77 -10 -16 -28 -48 -40 -70 -12 -22 -25 -42 -28 -45 -4 -3 -24
-33 -45 -68 -21 -34 -43 -68 -50 -75 -8 -7 -22 -29 -32 -47 -18 -35 -18 -35
-24 -10 -4 14 -5 41 -2 60 8 55 -10 26 -19 -32 -5 -32 -5 -56 1 -64 11 -13 3
-44 -11 -44 -5 0 -9 -7 -9 -15 0 -10 -10 -15 -27 -15 -29 0 -58 -14 -58 -27
-1 -11 -72 -150 -103 -201 l-27 -42 -99 2 -98 3 -34 60 c-19 33 -39 69 -44 80
-6 11 -35 61 -65 110 -30 50 -69 119 -86 155 -18 36 -36 67 -39 70 -6 5 -30
44 -91 152 -21 37 -49 84 -61 105 -12 21 -44 78 -71 126 l-49 88 -71 -3 -72
-3 -36 -60 -36 -60 -695 -3 -694 -2 -46 77 c-25 43 -59 103 -76 133 l-31 56
38 64 c21 36 68 119 105 185 79 139 90 153 152 186 25 13 55 30 67 36 16 9 88
13 254 13 l231 0 21 -35z m2366 25 c3 -5 1 -10 -4 -10 -6 0 -11 5 -11 10 0 6
2 10 4 10 3 0 8 -4 11 -10z m37 -110 c5 0 6 -4 3 -10 -3 -5 -11 -10 -16 -10
-6 0 -7 5 -4 10 3 6 2 10 -3 10 -11 0 -33 46 -25 54 4 3 13 -7 21 -24 8 -16
19 -30 24 -30z m8 29 c0 -6 -4 -7 -10 -4 -5 3 -10 11 -10 16 0 6 5 7 10 4 6
-3 10 -11 10 -16z m-283 -81 c-16 -10 -21 -2 -13 19 6 15 9 15 16 3 6 -9 5
-17 -3 -22z m323 11 c0 -5 -4 -9 -10 -9 -5 0 -10 7 -10 16 0 8 5 12 10 9 6 -3
10 -10 10 -16z m-30 -24 c0 -5 -5 -3 -10 5 -5 8 -10 20 -10 25 0 6 5 3 10 -5
5 -8 10 -19 10 -25z m-230 -66 c0 -17 -9 -9 -24 24 l-16 32 20 -24 c11 -13 20
-27 20 -32z m40 -72 c0 -4 -9 -2 -19 5 -11 6 -19 20 -18 30 1 17 3 16 19 -4
10 -13 18 -26 18 -31z m-9548 -27 c21 -36 72 -125 114 -197 l75 -133 -37 -66
c-58 -103 -64 -99 -195 131 -60 105 -109 194 -109 198 0 5 16 38 36 73 47 84
64 83 116 -6z m4080 0 c21 -36 73 -125 115 -199 l76 -133 -18 -32 c-70 -123
-87 -126 -146 -23 -23 39 -63 108 -89 152 -26 44 -58 100 -71 123 l-24 44 34
61 c54 99 69 100 123 7z m5492 -56 c3 -8 2 -12 -4 -9 -6 3 -10 10 -10 16 0 14
7 11 14 -7z m26 6 c0 -5 -2 -10 -4 -10 -3 0 -8 5 -11 10 -3 6 -1 10 4 10 6 0
11 -4 11 -10z m-3 -42 c-3 -8 -6 -5 -6 6 -1 11 2 17 5 13 3 -3 4 -12 1 -19z
m-9544 -585 c255 -444 232 -395 204 -440 -19 -30 -149 -254 -235 -403 -7 -14
-24 -41 -35 -62 -70 -117 -103 -175 -109 -190 -4 -10 -14 -18 -22 -18 -9 0
-20 -8 -25 -17 -28 -50 -20 -48 -233 -53 l-202 -5 -64 -109 c-36 -60 -64 -119
-64 -132 0 -12 41 -94 91 -181 l92 -160 -11 -47 c-6 -26 -31 -83 -55 -127 -25
-44 -57 -101 -72 -127 -48 -86 -138 -244 -307 -535 -91 -158 -176 -304 -187
-325 -12 -20 -33 -57 -49 -82 -37 -59 -76 -127 -97 -168 l-17 -32 -370 2 -370
3 -34 60 c-18 33 -42 74 -53 91 -24 39 -84 -76 433 819 260 449 346 598 543
940 95 165 203 352 240 415 37 63 77 133 89 155 12 22 63 110 113 195 81 140
183 317 400 695 111 192 95 175 157 175 l54 0 195 -337z m4018 90 c78 -137
153 -267 167 -291 15 -26 22 -51 18 -65 -5 -21 -124 -232 -356 -630 -73 -125
-106 -174 -112 -165 -6 9 -7 6 -4 -8 5 -14 -12 -51 -52 -120 -74 -125 -271
-465 -304 -524 -33 -59 -373 -647 -562 -972 l-91 -158 -40 0 c-46 1 -36 -12
-157 200 -39 69 -89 157 -111 195 -22 39 -53 94 -69 123 l-30 53 -51 -3 -51
-3 -86 -150 c-48 -82 -110 -190 -139 -240 -29 -49 -114 -197 -190 -328 -75
-131 -143 -250 -152 -265 -18 -31 -52 -91 -129 -226 l-55 -97 -50 3 -49 3 -73
125 c-40 69 -76 132 -80 140 -4 8 -25 47 -48 85 -23 39 -72 123 -109 187 l-68
117 25 54 25 54 98 5 c411 22 757 313 848 715 21 94 21 279 0 381 -19 93 -65
217 -100 268 -29 42 -29 39 32 144 42 72 250 434 327 570 39 69 76 128 82 132
5 4 28 8 51 8 l40 0 74 -127 c40 -70 73 -133 73 -140 0 -7 3 -13 7 -13 4 0 35
-48 70 -107 34 -60 80 -138 101 -174 37 -65 40 -67 82 -70 l44 -4 57 100 c31
55 74 129 95 165 109 188 200 345 306 530 65 113 150 261 190 330 40 69 107
186 150 260 42 74 84 145 91 158 12 18 23 22 68 22 l54 0 143 -247z m7829 194
c0 -7 -4 -17 -9 -22 -10 -11 -148 -249 -179 -310 -20 -40 -21 -40 -77 -40 -79
0 -90 -17 -52 -85 l28 -50 -72 -122 c-40 -68 -91 -157 -114 -198 -23 -41 -57
-100 -75 -130 -39 -66 -27 -45 -235 -405 -92 -159 -206 -357 -253 -440 -105
-186 -130 -225 -141 -225 -8 0 -121 173 -121 186 0 3 -9 19 -21 35 l-20 29
-327 2 -326 3 -48 81 -48 81 73 125 c48 84 82 131 102 143 45 26 95 55 145 83
25 14 78 44 117 68 40 24 75 44 79 44 3 0 18 8 32 19 15 10 52 32 82 49 30 16
84 47 120 67 36 21 76 44 90 51 30 17 235 20 245 4 3 -6 -3 -23 -14 -39 -12
-16 -21 -31 -21 -34 0 -3 -23 -44 -51 -91 l-50 -86 -78 1 c-67 1 -84 -2 -117
-23 -21 -14 -61 -37 -89 -53 -146 -80 -324 -187 -335 -199 -9 -11 -9 -20 1
-38 30 -59 25 -58 248 -58 l207 0 12 -27 c6 -16 21 -45 33 -65 20 -37 22 -38
80 -38 53 0 59 2 65 24 4 16 -3 37 -20 65 -14 22 -26 47 -26 54 0 17 19 53
160 297 62 107 121 209 130 225 9 17 31 54 49 83 17 29 31 55 31 58 0 3 9 17
20 31 26 33 25 55 -2 102 l-21 38 145 254 146 254 84 49 c45 27 99 57 118 68
43 25 148 87 175 104 27 18 125 18 125 1z m-4680 -175 c0 -4 -5 -13 -11 -19
-15 -15 -4 -43 16 -43 8 0 15 3 15 8 0 12 47 62 59 62 6 0 11 -9 11 -19 0 -11
9 -22 19 -26 21 -6 25 -15 36 -75 4 -19 13 -42 20 -50 20 -25 38 -106 38 -180
1 -67 -1 -72 -31 -100 -18 -16 -32 -33 -32 -38 0 -28 -117 -55 -302 -68 l-98
-7 -1 34 c-1 19 -1 40 0 47 3 20 -7 14 -50 -33 -41 -44 -43 -45 -99 -44 -32 1
-63 -2 -71 -6 -12 -8 -12 -6 0 8 12 15 11 17 -3 17 -9 0 -16 -4 -16 -9 0 -5
-7 -12 -16 -15 -22 -8 8 28 129 158 133 141 142 156 142 231 0 69 -29 130 -73
158 -26 16 -19 16 146 17 94 0 172 -4 172 -8z m-590 -319 c-201 -204 -411
-420 -591 -608 -79 -82 -219 -226 -310 -320 -91 -93 -187 -194 -214 -222 -33
-36 -56 -53 -74 -54 -17 -1 -20 -3 -8 -6 9 -2 17 -6 17 -8 0 -2 -60 -64 -132
-138 -73 -74 -179 -182 -236 -240 -74 -76 -108 -104 -121 -100 -11 3 -22 0
-26 -6 -4 -7 -26 5 -59 33 -76 65 -160 113 -251 143 -112 37 -285 39 -393 5
-414 -130 -605 -574 -414 -960 26 -53 33 -77 24 -80 -7 -2 -17 -13 -23 -25 -9
-18 -9 -20 2 -9 7 6 18 12 23 12 14 0 -44 -38 -124 -82 -36 -19 -90 -49 -121
-66 -151 -83 -251 -138 -324 -176 -44 -24 -114 -62 -156 -85 l-77 -41 -130 0
-130 0 -12 30 c-12 29 -8 38 85 203 54 94 126 219 160 277 34 58 73 124 85
148 13 23 27 42 30 42 4 0 7 6 7 13 0 6 28 59 63 117 34 58 106 182 160 275
53 94 148 258 210 365 62 107 145 251 185 320 39 69 116 202 170 295 54 94
140 242 191 330 l92 160 119 8 c65 4 201 6 303 3 162 -5 186 -8 198 -23 33
-46 39 -34 -225 -488 -29 -51 -29 -55 7 -55 28 0 97 37 545 298 72 41 186 108
255 147 194 112 491 283 890 514 363 210 365 211 425 211 l60 0 -155 -157z
m1791 30 c18 -32 47 -83 65 -113 80 -137 191 -328 209 -362 l20 -38 186 0
c102 0 247 -3 322 -7 l136 -6 16 -31 c24 -49 41 -66 64 -66 13 0 21 -6 21 -17
0 -15 2 -14 14 3 8 10 17 17 20 14 3 -3 -35 -77 -84 -164 -100 -175 -105 -195
-65 -264 l25 -43 -33 20 c-35 21 -163 66 -230 81 -23 5 -60 13 -82 19 -65 17
-206 15 -294 -4 -45 -10 -79 -20 -77 -22 2 -3 39 3 82 12 92 21 248 17 334 -9
30 -9 88 -25 128 -37 82 -23 231 -117 315 -197 78 -76 191 -231 220 -306 39
-96 77 -297 77 -403 l0 -88 -22 35 c-37 58 -46 72 -79 133 -32 57 -32 57 -79
57 -46 0 -48 1 -54 34 -4 18 -18 62 -31 96 -109 277 -348 452 -640 467 -219
12 -429 -83 -576 -259 -55 -66 -133 -217 -127 -246 3 -11 9 -2 17 23 23 69 80
170 128 226 268 314 750 328 1031 30 81 -86 125 -160 161 -270 34 -104 35
-102 -65 -99 l-86 3 -27 65 c-14 36 -38 86 -53 110 -89 150 -312 256 -485 230
-145 -22 -239 -71 -336 -175 -41 -45 -101 -153 -112 -202 l-7 -33 -78 0 c-82
0 -90 5 -90 51 0 10 -4 19 -9 19 -8 0 -106 153 -140 218 -16 30 -9 49 43 119
23 32 43 66 43 74 0 16 107 212 213 389 31 52 70 119 85 148 l28 52 91 0 91 0
31 52 31 51 -40 71 c-23 39 -44 73 -47 76 -3 3 -12 34 -19 70 -20 101 -89 213
-152 245 -14 8 -32 28 -39 45 -12 29 -14 30 -81 30 -64 0 -70 -2 -81 -25 -8
-18 -19 -25 -40 -25 l-29 0 20 29 c12 16 21 32 21 34 0 3 19 35 41 71 40 65
42 66 84 66 43 0 44 -1 76 -57z m-7232 -313 c78 -137 145 -258 148 -268 2 -10
-9 -41 -24 -68 l-29 -49 -150 -7 c-227 -10 -378 -55 -546 -163 -77 -50 -238
-200 -238 -221 0 -7 9 -15 19 -19 15 -4 37 11 93 68 173 174 392 271 646 284
64 3 112 2 112 -3 -1 -27 -29 -44 -74 -44 -26 0 -80 -5 -119 -11 -378 -56
-660 -301 -769 -667 -20 -67 -23 -98 -22 -242 0 -150 3 -173 27 -253 15 -48
44 -120 64 -160 35 -68 51 -137 31 -137 -12 0 -71 95 -101 165 -58 132 -72
206 -72 385 0 142 3 176 23 244 18 63 20 81 10 87 -25 16 -37 9 -48 -31 -5
-22 -14 -57 -20 -78 -34 -132 -30 -328 10 -487 22 -87 91 -238 140 -311 l31
-45 -34 -62 c-78 -141 -61 -127 -152 -127 -44 -1 -103 -3 -131 -5 -47 -3 -52
-2 -63 22 -6 14 -14 23 -18 20 -3 -4 0 -13 6 -21 7 -8 8 -16 4 -18 -4 -1 -127
-2 -273 0 l-265 3 -18 30 c-9 17 -17 38 -17 47 0 14 215 400 287 515 l24 39
-62 111 c-34 62 -85 153 -114 202 -211 361 -198 335 -185 364 6 14 32 61 57
104 l45 77 374 0 374 0 23 38 c22 34 117 198 407 702 62 107 118 205 126 218
14 21 20 22 167 22 l153 0 143 -250z m7202 179 c19 -11 -4 -15 -65 -11 -40 3
-54 7 -45 13 16 10 93 9 110 -2z m1749 -100 c0 -6 -10 -29 -22 -51 -22 -39
-19 -66 8 -75 6 -2 58 28 117 67 l106 70 140 0 c78 0 141 -3 141 -7 0 -5 -13
-31 -30 -59 -19 -34 -43 -60 -72 -76 -24 -14 -188 -109 -364 -212 l-321 -186
-58 -103 c-32 -56 -69 -119 -82 -139 l-23 -38 -104 0 -104 0 -21 35 -20 35 32
55 c28 48 36 55 63 55 47 0 62 24 40 61 l-17 29 87 153 c48 83 96 168 107 187
10 19 42 74 70 123 l51 87 138 0 c95 0 138 -3 138 -11z m-5692 -36 c-10 -2
-26 -2 -35 0 -10 3 -2 5 17 5 19 0 27 -2 18 -5z m3932 -118 l22 -45 -39 -68
c-73 -123 -121 -207 -153 -267 -18 -33 -37 -65 -42 -71 -5 -7 -65 -110 -135
-230 -370 -643 -437 -759 -504 -874 -40 -69 -91 -159 -114 -200 -117 -208
-171 -293 -189 -296 -10 -1 -21 -6 -24 -10 -4 -4 1 -4 10 -1 29 10 29 -8 0
-46 l-27 -36 -255 -3 c-140 -2 -285 -2 -321 0 l-67 3 -22 43 c-28 51 -44 13
154 359 131 227 150 256 165 245 14 -11 14 -11 3 4 -12 14 38 106 384 705 218
378 415 720 438 760 l41 72 327 1 326 0 22 -45z m236 -132 c8 -10 26 -42 40
-71 l26 -52 -25 -38 -25 -38 -76 -1 c-42 -1 -76 1 -76 4 0 10 113 213 118 213
3 0 11 -8 18 -17z m909 -24 c13 -24 14 -34 4 -45 -16 -20 -98 -19 -105 1 -8
21 45 71 78 74 4 1 15 -13 23 -30z m-92 14 c-7 -2 -19 -2 -25 0 -7 3 -2 5 12
5 14 0 19 -2 13 -5z m-2190 -186 c15 -29 27 -56 27 -61 0 -8 -42 -85 -145
-261 -110 -190 -233 -403 -273 -475 -14 -25 -32 -56 -42 -70 -9 -14 -34 -56
-55 -95 -21 -38 -46 -83 -56 -100 -18 -32 -359 -619 -389 -670 -10 -16 -33
-57 -52 -90 -117 -201 -103 -188 -202 -183 -39 2 -62 8 -68 18 -4 8 -33 58
-63 110 -30 52 -74 129 -97 171 l-43 77 -155 7 c-85 3 -210 8 -278 10 -68 2
-126 6 -129 9 -4 3 5 7 18 8 13 1 -12 4 -56 7 l-80 6 -7 105 c-7 116 -17 165
-55 254 l-25 59 84 86 c46 47 156 160 243 251 437 451 412 428 557 511 73 42
178 102 233 134 55 32 169 98 254 147 l154 88 337 0 337 0 26 -53z m-5910
-152 c77 -16 187 -62 187 -79 0 -7 -15 -35 -32 -63 -18 -28 -45 -72 -60 -97
-15 -25 -33 -45 -39 -44 -6 2 -14 -4 -18 -12 -5 -8 -13 -25 -20 -38 -6 -13 -9
-27 -6 -33 4 -5 1 -8 -6 -7 -7 2 -16 -10 -20 -27 -4 -16 -7 -26 -8 -21 0 6 -7
1 -15 -10 -11 -14 -11 -21 -3 -27 8 -6 5 -7 -6 -3 -10 3 -24 6 -30 6 -7 0 -6
4 3 10 26 16 -18 25 -131 25 -75 0 -111 -4 -122 -14 -9 -7 -14 -17 -11 -22 3
-5 1 -9 -5 -9 -5 0 -11 5 -13 12 -5 15 -98 -39 -98 -57 0 -7 -11 -16 -25 -19
-17 -4 -22 -11 -18 -22 3 -9 0 -14 -8 -12 -9 2 -13 -4 -11 -16 2 -11 -1 -15
-7 -11 -7 4 -11 -3 -11 -17 0 -17 -3 -19 -9 -9 -11 17 -14 11 -41 -81 -46
-156 -14 -302 93 -427 26 -30 45 -57 43 -60 -60 -111 -87 -149 -106 -144 -21
6 -27 -6 -10 -23 7 -7 -7 -42 -46 -110 -30 -54 -59 -102 -62 -106 -13 -14
-164 125 -222 203 -70 94 -101 157 -135 275 -66 223 -33 481 88 687 58 100
200 241 302 301 89 52 232 101 333 115 80 11 211 5 305 -14z m323 -147 c66
-49 159 -148 204 -215 230 -348 188 -803 -100 -1094 -111 -112 -203 -169 -348
-219 -127 -43 -249 -57 -364 -41 -103 13 -277 67 -285 87 -3 8 6 33 19 56 57
99 199 342 201 345 2 2 25 -4 51 -13 75 -26 195 -16 276 22 191 90 285 320
210 515 -10 26 -15 50 -12 53 3 4 0 6 -7 6 -8 0 -11 6 -7 16 3 8 2 12 -4 9 -6
-3 -10 2 -10 12 0 10 -12 32 -26 48 l-25 30 18 -30 18 -30 -36 30 c-24 20 -34
35 -30 46 10 29 216 388 222 389 4 0 19 -10 35 -22z m-588 -295 c-10 -2 -26
-2 -35 0 -10 3 -2 5 17 5 19 0 27 -2 18 -5z m-123 -43 c-3 -5 -12 -10 -18 -10
-7 0 -6 4 3 10 19 12 23 12 15 0z m8795 -110 c0 -11 5 -20 10 -20 6 0 10 5 10
12 0 6 11 1 25 -12 14 -13 25 -31 25 -41 0 -9 16 -34 35 -55 19 -22 35 -43 35
-47 0 -14 40 -51 66 -62 l26 -10 -1 -182 c-1 -172 -18 -324 -39 -345 -5 -5
-31 30 -59 76 l-51 85 0 128 c0 87 -5 152 -17 203 -9 41 -21 95 -26 120 -5 25
-20 69 -34 98 -27 57 -30 72 -15 72 6 0 10 -9 10 -20z m-716 -79 c61 -26 56
-35 -9 -16 -181 55 -412 -42 -494 -207 -39 -78 -41 -54 -2 28 46 97 136 175
244 210 62 20 200 13 261 -15z m-4419 -51 c87 -27 164 -69 233 -127 153 -130
240 -357 211 -553 -10 -74 -10 -79 13 -114 l23 -36 202 0 201 0 178 -307 c309
-536 348 -603 469 -813 65 -113 132 -230 150 -260 241 -416 518 -896 530 -920
l16 -30 -90 0 c-88 0 -91 1 -106 28 l-16 27 6 -27 c5 -26 3 -28 -30 -28 -41 0
-31 -8 -427 325 -150 126 -282 237 -293 246 -63 52 -419 350 -530 442 -71 60
-139 116 -150 125 -11 10 -48 41 -82 70 -34 29 -88 73 -119 97 -32 25 -77 64
-102 87 -40 37 -43 43 -26 49 15 5 10 9 -22 14 -62 11 -115 70 -212 235 -46
80 -93 164 -105 186 l-20 42 -106 5 c-178 8 -305 64 -430 188 -120 120 -181
271 -181 448 0 421 412 725 815 601z m4511 -2 l19 -21 -27 18 c-29 18 -34 25
-20 25 5 0 17 -10 28 -22z m-153 -124 c39 -20 67 -44 67 -57 0 -6 -8 -3 -17 5
-10 8 -25 19 -33 23 -13 8 -13 7 -1 -8 14 -18 12 -21 -13 -11 -9 3 -16 12 -16
20 0 16 -36 19 -45 4 -3 -6 4 -10 17 -10 19 0 20 -2 8 -11 -13 -9 -13 -10 0
-7 20 3 60 -11 60 -22 0 -4 9 -10 20 -13 19 -5 26 -28 21 -65 -1 -8 5 -19 15
-26 21 -16 11 -81 -12 -72 -8 3 -14 -1 -14 -9 0 -8 -6 -15 -12 -16 -10 0 -10
-2 0 -6 17 -7 15 -23 -3 -23 -9 0 -12 -6 -8 -17 5 -12 2 -15 -10 -10 -11 4
-20 -1 -28 -14 -8 -16 -18 -20 -37 -16 -14 3 -36 1 -48 -3 -30 -12 -95 9 -92
29 2 9 -4 16 -12 16 -8 0 -16 10 -18 23 -2 12 -7 22 -12 22 -5 0 -7 7 -4 15 4
10 0 15 -15 15 -12 0 -21 4 -21 9 0 5 -3 17 -6 25 -5 12 -2 15 10 10 12 -5 16
0 16 20 0 14 -4 26 -10 26 -16 0 -12 27 5 34 8 3 15 13 15 21 0 14 -2 14 -14
3 -19 -20 -46 -74 -46 -94 0 -10 -3 -15 -6 -11 -13 13 19 106 48 142 18 21 50
46 72 56 51 23 136 24 179 3z m-543 -215 c0 -7 -10 -9 -25 -5 -34 9 -41 -13
-27 -83 19 -89 75 -193 143 -261 32 -33 66 -60 74 -60 8 0 15 -4 15 -9 0 -12
157 -72 210 -80 55 -8 157 3 230 26 66 20 69 22 50 33 -10 6 -22 4 -36 -5 -27
-17 -122 -35 -191 -35 -41 0 -57 5 -70 20 -10 12 -30 20 -47 20 -21 0 -27 3
-19 11 13 13 79 -3 76 -19 -3 -12 19 -19 62 -20 28 0 27 1 -10 13 -49 16 -35
22 65 28 41 2 95 12 120 20 48 18 50 17 54 -10 2 -10 10 -19 18 -21 20 -4 119
70 113 86 -2 6 2 12 10 12 8 0 15 5 15 11 0 6 -6 9 -14 6 -8 -3 -17 -1 -19 6
-3 8 -10 5 -20 -8 -13 -17 -13 -21 -2 -25 8 -3 11 -10 7 -16 -11 -16 -41 -24
-47 -13 -9 14 -25 1 -19 -15 3 -7 -1 -16 -9 -19 -25 -9 -28 32 -4 45 12 6 35
25 52 42 16 17 41 40 55 51 l25 20 -19 -23 c-22 -25 -20 -30 14 -34 45 -6 121
134 144 265 l7 37 -36 0 c-19 0 -35 5 -35 10 0 6 66 10 179 10 204 0 177 13
246 -115 21 -38 42 -76 48 -83 12 -16 39 -62 77 -134 l30 -58 -47 -89 c-27
-49 -57 -102 -68 -117 -55 -75 -121 -154 -166 -201 l-50 -52 -107 -3 c-59 -2
-125 0 -147 3 -38 5 -39 6 -13 13 15 4 29 14 32 22 4 12 -1 12 -31 -1 -20 -9
-43 -20 -50 -27 -9 -7 -97 -10 -287 -9 -259 2 -277 1 -315 -18 -26 -14 -42
-17 -46 -10 -4 6 -14 8 -22 5 -11 -5 -13 -1 -8 17 5 18 4 19 -5 7 -9 -11 -13
-12 -17 -2 -2 6 -8 10 -12 8 -16 -10 -35 15 -36 46 0 19 -5 34 -12 34 -7 1
-17 2 -23 3 -5 0 -10 14 -10 30 0 20 -8 34 -26 46 -20 13 -24 22 -20 41 4 13
2 24 -3 24 -14 0 -21 -43 -9 -57 15 -18 3 -16 -16 3 -15 14 -14 20 11 62 34
59 33 58 41 46 16 -25 202 -105 278 -120 173 -34 355 -8 486 69 26 15 51 27
55 27 15 0 149 132 188 184 20 27 49 75 65 107 49 97 88 279 60 279 -5 0 -10
-19 -10 -41 0 -51 -33 -166 -67 -234 -53 -106 -123 -189 -208 -250 -213 -151
-456 -182 -686 -86 -85 35 -159 80 -159 96 0 6 -21 31 -46 55 -26 25 -66 75
-90 111 -73 112 -91 163 -119 342 l-4 27 114 0 c78 0 115 -4 115 -11z m873
-198 c-3 -11 -14 -28 -25 -38 -19 -17 -19 -15 2 20 25 42 31 46 23 18z m-705
-698 c-6 -7 -12 -13 -13 -13 -2 0 -5 6 -8 13 -3 7 3 13 14 13 13 0 15 -3 7
-13z m-1658 -80 c0 -8 -16 -42 -36 -76 -20 -34 -50 -87 -67 -117 -17 -30 -38
-66 -47 -80 -9 -14 -36 -60 -59 -102 -51 -94 -87 -120 -158 -116 -34 2 -49 8
-51 19 -4 21 261 481 281 488 9 4 43 4 76 3 46 -3 61 -7 61 -19z m828 12 c8
-8 -21 -63 -142 -273 l-89 -154 -34 54 c-49 78 -50 89 -13 154 17 31 30 58 28
59 -10 10 -110 7 -120 -3 -9 -9 -23 7 -60 71 -26 45 -48 87 -48 92 0 12 466
12 478 0z m706 -6 c10 -9 6 -19 -41 -104 -64 -114 -71 -122 -194 -199 l-119
-75 -157 -3 -157 -3 -34 -59 -34 -58 -51 5 c-47 5 -77 24 -77 49 0 8 79 154
162 298 31 52 70 110 87 127 l32 33 257 3 c267 3 311 1 326 -14z m715 2 c13
-21 -238 -449 -280 -478 -39 -27 -126 -33 -135 -9 -6 14 24 80 57 127 10 14
16 29 12 33 -3 3 -70 6 -147 6 l-141 0 -38 -68 c-22 -40 -52 -76 -72 -89 -56
-37 -153 -26 -138 15 4 9 30 55 58 102 28 47 68 115 88 152 37 67 65 91 212
178 22 13 42 27 45 31 9 12 48 14 263 14 160 -1 210 -4 216 -14z m201 -65 c22
-38 40 -72 40 -77 0 -5 -16 -9 -35 -9 -32 0 -36 -4 -65 -63 -27 -52 -30 -66
-21 -90 l11 -27 109 0 c108 0 110 0 129 -27 41 -58 64 -115 52 -127 -8 -7 -79
-11 -222 -11 l-211 0 -18 29 c-10 16 -27 55 -39 86 l-21 56 95 164 c52 90 103
167 113 171 28 10 40 -1 83 -75z m308 75 c158 -1 212 -4 212 -13 0 -25 -63
-114 -92 -131 -24 -14 -55 -17 -167 -17 l-138 0 -46 78 c-24 42 -43 79 -42 82
2 3 16 5 32 4 15 -1 124 -3 241 -3z m1159 -6 c31 -11 -24 -87 -90 -125 l-52
-30 -205 0 c-202 0 -205 0 -216 -23 -17 -36 -205 -360 -226 -389 -11 -16 -26
-28 -34 -28 -7 0 -27 27 -44 60 l-31 61 61 107 c34 59 74 127 90 152 16 25 29
48 29 53 1 4 -44 7 -99 7 -113 0 -123 6 -95 62 34 66 64 97 98 100 47 4 800
-2 814 -7z m-3592 -97 c32 -57 65 -114 72 -127 14 -22 11 -29 -44 -119 -48
-81 -67 -102 -109 -127 -59 -35 -108 -43 -122 -19 -7 12 13 54 76 163 46 80
87 152 89 159 4 9 -11 12 -53 12 l-59 0 -43 -72 c-24 -40 -69 -118 -101 -173
l-57 -100 -65 -3 c-104 -5 -104 -1 2 184 132 228 133 230 207 279 51 34 77 44
108 45 l42 0 57 -102z m2433 -254 c9 -16 -14 -74 -29 -74 -4 0 -24 34 -47 83
-8 16 67 7 76 -9z m-2243 -71 c36 -68 26 -85 -49 -81 -43 3 -51 6 -54 24 -3
24 58 129 68 117 4 -4 20 -32 35 -60z m-3287 20 c7 -11 5 -27 -6 -50 l-16 -33
-957 0 -958 0 -21 -30 -21 -30 -225 0 c-123 0 -224 3 -224 6 0 18 55 94 68 94
10 1 97 0 195 0 l177 -1 18 31 17 30 972 0 c902 0 973 -1 981 -17z m2187 -64
c6 -16 -19 -79 -30 -79 -12 0 -64 94 -55 100 20 12 79 -2 85 -21z m-5378 -29
l-22 -50 -452 0 -453 0 -6 24 c-3 15 1 34 11 50 l17 26 464 0 463 0 -22 -50z
m3610 36 c4 -8 28 -30 51 -50 l44 -36 -246 0 c-236 0 -246 1 -256 20 -8 16 -7
27 7 50 l17 30 188 0 c149 0 189 -3 195 -14z m-3205 -204 l111 -192 -28 -53
c-58 -107 -75 -107 -138 2 -24 42 -74 129 -111 193 l-68 118 27 52 c37 72 44
79 72 76 20 -2 44 -37 135 -196z m6665 148 c-63 -11 -72 -20 -19 -20 35 0 42
-3 42 -20 0 -11 -7 -20 -15 -20 -9 0 -12 6 -9 15 5 12 -3 15 -41 15 -28 0 -44
-4 -40 -10 3 -5 18 -10 33 -10 20 0 23 -3 12 -10 -9 -5 19 -8 78 -7 86 2 91 3
87 22 -5 18 -4 18 11 -2 9 -13 23 -23 31 -23 8 0 28 -7 46 -16 30 -16 150 -21
202 -8 16 4 31 -13 81 -93 l61 -98 65 -3 66 -3 56 96 c55 92 59 95 93 95 27 0
33 -3 25 -12 -6 -7 -36 -62 -67 -123 -31 -60 -61 -114 -66 -119 -19 -20 1 -79
45 -136 22 -30 36 -60 36 -81 0 -12 -25 -62 -55 -111 -30 -48 -55 -90 -55 -92
0 -8 -100 -170 -108 -176 -4 -3 -13 -16 -20 -30 -7 -14 -23 -43 -37 -65 -13
-22 -37 -64 -52 -93 -21 -40 -31 -51 -45 -46 -10 3 -18 1 -18 -4 0 -6 -11 -13
-24 -16 -18 -4 -46 5 -94 30 -76 40 -92 40 -150 4 l-34 -21 4 -89 3 -88 -95
-60 c-52 -33 -115 -70 -140 -82 -24 -13 -56 -30 -70 -40 -35 -24 -134 -82
-200 -118 -30 -16 -71 -39 -90 -51 -19 -11 -46 -26 -60 -33 -14 -7 -38 -21
-55 -33 -53 -36 -77 -45 -119 -45 -38 0 -43 -3 -76 -53 -19 -28 -38 -54 -41
-57 -3 -3 -27 -36 -54 -75 -27 -38 -69 -98 -94 -132 -25 -35 -64 -89 -86 -120
-46 -65 -92 -128 -196 -267 -41 -54 -85 -115 -98 -134 -13 -20 -32 -45 -42
-56 -11 -11 -29 -34 -41 -52 l-23 -33 -142 0 c-82 -1 -145 4 -148 9 -3 6 0 21
7 34 36 69 164 294 178 316 9 14 33 54 52 90 48 90 116 207 404 697 52 88 119
203 142 243 13 25 33 57 43 72 11 14 19 28 19 31 0 5 55 101 313 552 105 183
187 325 217 375 14 24 202 342 219 372 16 27 18 28 106 27 81 -1 85 -2 42 -9z
m147 -6 c3 -8 2 -12 -4 -9 -6 3 -10 10 -10 16 0 14 7 11 14 -7z m463 -26 c-3
-8 -6 -5 -6 6 -1 11 2 17 5 13 3 -3 4 -12 1 -19z m-79 0 c-2 -7 2 -12 9 -11 7
2 10 -4 7 -12 -7 -17 11 -21 21 -5 8 13 25 13 25 -1 0 -5 -4 -8 -9 -4 -13 7
-24 -12 -15 -26 4 -7 15 -2 31 15 23 25 48 27 40 3 -2 -7 2 -17 9 -24 18 -18
24 -16 17 5 -5 14 -3 15 8 5 7 -7 33 -13 57 -13 27 0 41 -4 37 -10 -4 -6 -10
-8 -14 -6 -4 3 -13 0 -21 -6 -12 -8 -12 -9 3 -4 26 8 21 -12 -21 -79 -36 -59
-38 -61 -83 -64 -45 -2 -47 -1 -77 46 -16 26 -37 65 -45 85 -16 38 -12 82 6
71 7 -4 8 0 4 11 -4 10 -5 22 -1 27 8 13 14 11 12 -3z m-38 -38 c0 -5 -4 -10
-10 -10 -5 0 -10 5 -10 10 0 6 5 10 10 10 6 0 10 -4 10 -10z m-1562 -357 c70
1 198 -6 285 -15 87 -9 169 -14 183 -12 13 2 24 0 24 -6 0 -6 12 2 26 17 20
22 16 8 -21 -62 -55 -104 -241 -432 -295 -520 -20 -33 -61 -103 -91 -156 l-53
-96 -101 176 c-56 97 -128 221 -160 276 -57 97 -205 365 -205 370 0 1 41 0 92
-2 91 -3 128 -17 128 -48 0 -6 12 -21 26 -34 20 -18 28 -20 40 -10 12 10 13 9
9 -4 -4 -8 -2 -18 4 -22 19 -11 12 32 -14 89 -14 30 -25 61 -25 69 0 23 15 30
18 9 3 -20 10 -21 130 -19z m-3068 -32 c10 -9 27 -30 37 -47 10 -17 43 -74 74
-125 93 -156 174 -304 276 -505 l56 -112 -83 -153 c-154 -284 -377 -674 -395
-693 -9 -9 -66 -15 -182 -19 -92 -3 -300 -11 -461 -18 -275 -10 -294 -10 -313
7 -10 9 -19 20 -19 24 0 4 -20 43 -44 86 -55 101 -117 217 -198 374 -36 69
-91 173 -122 232 l-57 106 22 39 c120 216 454 762 484 792 13 13 391 28 688
28 186 0 221 -2 237 -16z m1779 -413 c36 -29 185 -151 329 -272 435 -364 447
-374 508 -386 31 -7 119 -10 204 -8 83 2 150 2 150 0 0 -8 -46 -92 -101 -184
-34 -57 -79 -134 -102 -173 -22 -38 -60 -102 -84 -141 -24 -39 -43 -77 -43
-84 0 -14 6 -14 -495 6 -82 3 -159 7 -170 9 -25 5 -80 94 -224 360 -15 28 -38
68 -51 90 -12 22 -36 65 -53 95 -16 30 -40 73 -52 95 -12 22 -44 80 -70 128
-54 102 -56 85 30 247 90 167 148 270 154 270 2 0 33 -23 70 -52z m580 -2053
c0 -5 -4 -3 -9 5 -5 8 -9 22 -9 30 0 16 17 -16 18 -35z"/>
<path d="M9523 7303 c48 -2 125 -2 170 0 45 1 6 3 -88 3 -93 0 -130 -2 -82 -3z"/>
<path d="M9818 7303 c23 -2 59 -2 80 0 20 2 1 4 -43 4 -44 0 -61 -2 -37 -4z"/>
<path d="M10013 7303 c42 -2 112 -2 155 0 42 1 7 3 -78 3 -85 0 -120 -2 -77
-3z"/>
<path d="M12820 8670 c-11 -21 -20 -46 -20 -54 0 -8 17 -43 39 -78 39 -65 140
-242 220 -386 l46 -82 69 2 69 3 82 145 c45 80 114 201 153 269 l70 124 -25
41 c-14 23 -31 44 -37 48 -6 4 -154 8 -328 8 l-318 0 -20 -40z m216 5 c22 3
130 6 239 7 l198 0 29 -38 28 -37 -31 -56 c-18 -31 -85 -149 -151 -263 l-120
-208 -59 0 c-32 0 -59 4 -59 10 0 5 -30 60 -66 122 -124 214 -195 338 -211
370 -12 23 -11 32 3 65 l17 39 71 -8 c39 -5 89 -6 112 -3z"/>
<path d="M13787 7728 c-61 -21 -87 -51 -87 -103 0 -58 33 -92 101 -105 63 -12
62 -12 54 0 -8 14 8 13 22 -1 16 -16 44 -4 37 16 -3 8 -11 15 -16 15 -6 0 -8
-7 -4 -15 3 -8 1 -15 -4 -15 -15 0 -12 23 5 46 8 10 15 31 15 46 0 15 4 37 9
51 6 14 6 29 0 38 -6 11 -9 8 -9 -10 l0 -24 -21 27 c-11 14 -27 26 -36 26 -9
0 -13 6 -9 15 3 8 4 14 3 14 -1 -1 -28 -10 -60 -21z"/>
<path d="M4695 7445 c-51 -50 -15 -135 58 -135 70 0 103 85 52 135 -15 16 -36
25 -55 25 -19 0 -40 -9 -55 -25z m50 -2 c-16 -13 -17 -15 -2 -10 25 9 64 -8
71 -31 9 -29 -14 -72 -41 -79 -37 -9 -70 11 -78 48 -7 29 -3 37 24 61 17 15
35 28 39 28 4 0 -2 -8 -13 -17z"/>
<path d="M4198 6993 c7 -3 16 -2 19 1 4 3 -2 6 -13 5 -11 0 -14 -3 -6 -6z"/>
<path d="M4318 6993 c46 -2 118 -2 160 0 42 1 5 3 -83 3 -88 0 -123 -2 -77 -3z"/>
<path d="M4609 6925 c5 -11 17 -29 26 -40 l16 -20 -10 20 c-5 11 -17 29 -26
40 l-16 20 10 -20z"/>
<path d="M2855 4839 c-52 -30 -62 -93 -20 -134 50 -51 135 -17 135 55 0 21 -8
47 -17 59 -22 25 -71 35 -98 20z m88 -41 c24 -33 17 -71 -18 -94 -52 -34 -117
29 -88 86 23 46 74 51 106 8z"/>
<path d="M8706 7549 c-31 -37 -33 -77 -5 -108 33 -35 65 -43 104 -27 62 26 74
89 26 137 -41 41 -90 40 -125 -2z m115 -18 c38 -47 12 -111 -44 -111 -38 0
-50 7 -66 38 -15 28 -6 78 16 91 28 15 74 7 94 -18z"/>
<path d="M7128 6969 c-22 -12 -24 -62 -4 -78 46 -38 111 25 71 69 -20 22 -41
25 -67 9z"/>
<path d="M7325 6829 c-4 -6 -5 -12 -2 -15 2 -3 7 2 10 11 7 17 1 20 -8 4z"/>
<path d="M8103 6833 c59 -2 155 -2 215 0 59 1 10 3 -108 3 -118 0 -167 -2
-107 -3z"/>
<path d="M7196 6603 c-6 -14 -5 -15 5 -6 7 7 10 15 7 18 -3 3 -9 -2 -12 -12z"/>
<path d="M7348 6413 c83 -2 221 -2 305 0 83 1 15 3 -153 3 -168 0 -236 -2
-152 -3z"/>
<path d="M6715 6381 c-4 -13 8 -47 34 -98 52 -104 79 -188 95 -297 13 -83 26
-111 51 -102 12 4 8 80 -10 166 -27 131 -117 336 -152 347 -6 2 -14 -5 -18
-16z"/>
<path d="M7871 6283 c-10 -26 -10 -27 4 -9 8 11 15 23 15 28 0 15 -7 8 -19
-19z"/>
<path d="M7802 6164 c-17 -30 -27 -52 -23 -49 11 6 63 97 58 101 -2 2 -17 -21
-35 -52z"/>
<path d="M7260 6140 c6 -11 13 -20 16 -20 2 0 0 9 -6 20 -6 11 -13 20 -16 20
-2 0 0 -9 6 -20z"/>
<path d="M7300 6071 c0 -6 4 -13 10 -16 6 -3 7 1 4 9 -7 18 -14 21 -14 7z"/>
<path d="M7730 6040 c-6 -11 -8 -20 -6 -20 3 0 10 9 16 20 6 11 8 20 6 20 -3
0 -10 -9 -16 -20z"/>
<path d="M7690 5970 c-6 -11 -8 -20 -6 -20 3 0 10 9 16 20 6 11 8 20 6 20 -3
0 -10 -9 -16 -20z"/>
<path d="M7655 5910 c-9 -16 -13 -30 -11 -30 3 0 12 14 21 30 9 17 13 30 11
30 -3 0 -12 -13 -21 -30z"/>
<path d="M7436 5837 c3 -10 9 -15 12 -12 3 3 0 11 -7 18 -10 9 -11 8 -5 -6z"/>
<path d="M6849 5701 c-20 -16 -22 -23 -14 -46 12 -34 44 -47 76 -31 30 15 35
40 15 71 -20 30 -45 32 -77 6z"/>
<path d="M6749 5398 c-92 -183 -256 -345 -434 -429 -122 -57 -243 -89 -365
-96 -101 -5 -130 -15 -130 -45 0 -4 39 -8 88 -8 340 0 680 198 858 500 52 88
62 119 43 131 -24 15 -28 11 -60 -53z"/>
<path d="M10098 6323 c7 -3 16 -2 19 1 4 3 -2 6 -13 5 -11 0 -14 -3 -6 -6z"/>
<path d="M9512 6280 c-45 -42 -35 -112 21 -138 51 -24 117 18 117 74 0 71 -87
111 -138 64z m110 -39 c13 -26 14 -38 6 -57 -21 -45 -94 -44 -117 0 -16 29 -7
76 14 76 8 0 15 5 15 11 0 6 14 9 33 7 25 -2 36 -10 49 -37z"/>
<path d="M9127 6133 c18 -2 50 -2 70 0 21 2 7 4 -32 4 -38 0 -55 -2 -38 -4z"/>
<path d="M9033 6123 c9 -2 23 -2 30 0 6 3 -1 5 -18 5 -16 0 -22 -2 -12 -5z"/>
<path d="M9258 6123 c6 -2 18 -2 25 0 6 3 1 5 -13 5 -14 0 -19 -2 -12 -5z"/>
<path d="M8988 6113 c7 -3 16 -2 19 1 4 3 -2 6 -13 5 -11 0 -14 -3 -6 -6z"/>
<path d="M8834 6064 c-18 -14 -18 -14 6 -3 31 14 36 19 24 19 -6 0 -19 -7 -30
-16z"/>
<path d="M9550 6026 c0 -2 8 -10 18 -17 15 -13 16 -12 3 4 -13 16 -21 21 -21
13z"/>
<path d="M8599 5893 l-34 -38 38 34 c20 19 37 36 37 38 0 8 -8 0 -41 -34z"/>
<path d="M8535 5814 c-9 -15 -12 -23 -6 -20 11 7 35 46 28 46 -3 0 -12 -12
-22 -26z"/>
<path d="M8446 5655 c-9 -26 -7 -32 5 -12 6 10 9 21 6 23 -2 3 -7 -2 -11 -11z"/>
<path d="M8411 5534 c0 -11 3 -14 6 -6 3 7 2 16 -1 19 -3 4 -6 -2 -5 -13z"/>
<path d="M8402 5475 c0 -16 2 -22 5 -12 2 9 2 23 0 30 -3 6 -5 -1 -5 -18z"/>
<path d="M8393 5365 c0 -22 2 -30 4 -17 2 12 2 30 0 40 -3 9 -5 -1 -4 -23z"/>
<path d="M8402 5280 c0 -19 2 -27 5 -17 2 9 2 25 0 35 -3 9 -5 1 -5 -18z"/>
<path d="M8410 5225 c0 -12 -37 -15 -247 -18 l-248 -2 253 -3 c246 -2 252 -2
252 18 0 11 -2 20 -5 20 -3 0 -5 -7 -5 -15z"/>
<path d="M7782 4754 c-28 -19 -28 -55 -2 -79 47 -42 114 31 69 76 -23 23 -38
24 -67 3z"/>
<path d="M13310 6545 c-47 -18 -27 -18 30 -1 25 8 36 15 25 15 -11 0 -36 -7
-55 -14z"/>
<path d="M14040 6530 c0 -5 5 -10 11 -10 5 0 7 5 4 10 -3 6 -8 10 -11 10 -2 0
-4 -4 -4 -10z"/>
<path d="M13195 6499 c-16 -10 -26 -19 -22 -19 11 0 67 29 67 35 0 9 -15 4
-45 -16z"/>
<path d="M13140 6469 c0 -5 5 -7 10 -4 6 3 10 8 10 11 0 2 -4 4 -10 4 -5 0
-10 -5 -10 -11z"/>
<path d="M13073 6424 l-28 -26 33 22 c29 20 39 30 28 30 -3 0 -18 -12 -33 -26z"/>
<path d="M12978 6353 c-50 -44 -99 -100 -98 -112 1 -3 18 14 40 39 21 25 58
62 82 82 24 21 40 38 36 38 -4 0 -31 -21 -60 -47z"/>
<path d="M4946 6427 c3 -10 9 -15 12 -12 3 3 0 11 -7 18 -10 9 -11 8 -5 -6z"/>
<path d="M5021 6383 c-23 -35 -23 -37 -5 -50 24 -18 32 -14 57 30 18 33 19 39
7 47 -25 16 -34 11 -59 -27z"/>
<path d="M4208 6364 c-21 -45 21 -87 66 -66 28 13 36 58 14 80 -22 22 -67 14
-80 -14z"/>
<path d="M4512 6378 c-28 -28 -3 -88 37 -88 23 0 51 31 51 56 0 27 -19 44 -50
44 -14 0 -31 -5 -38 -12z"/>
<path d="M4367 6122 c-22 -25 -21 -55 2 -76 17 -16 23 -16 48 -4 34 16 42 52
17 79 -22 24 -46 24 -67 1z"/>
<path d="M4756 6043 c-6 -14 -5 -15 5 -6 7 7 10 15 7 18 -3 3 -9 -2 -12 -12z"/>
<path d="M4735 6009 c-4 -6 -5 -12 -2 -15 2 -3 7 2 10 11 7 17 1 20 -8 4z"/>
<path d="M4706 5953 c-6 -14 -5 -15 5 -6 7 7 10 15 7 18 -3 3 -9 -2 -12 -12z"/>
<path d="M4480 5400 c6 -11 13 -20 16 -20 2 0 0 9 -6 20 -6 11 -13 20 -16 20
-2 0 0 -9 6 -20z"/>
<path d="M4515 5340 c9 -16 18 -30 21 -30 2 0 -2 14 -11 30 -9 17 -18 30 -21
30 -2 0 2 -13 11 -30z"/>
<path d="M4749 5317 c-28 -21 -41 -57 -35 -93 19 -97 166 -79 166 21 0 66 -81
111 -131 72z m64 -14 c-7 -2 -19 -2 -25 0 -7 3 -2 5 12 5 14 0 19 -2 13 -5z
m-47 -12 c-3 -4 13 -5 35 -1 37 7 41 5 54 -21 24 -46 -8 -99 -61 -99 -26 0
-64 40 -64 67 0 25 20 63 33 63 4 0 6 -4 3 -9z"/>
<path d="M4561 5260 c12 -22 24 -38 26 -36 4 4 -37 76 -44 76 -2 0 6 -18 18
-40z"/>
<path d="M12603 7120 c-48 -19 -33 -100 19 -100 22 0 58 34 58 55 0 16 -35 55
-47 54 -5 0 -18 -4 -30 -9z"/>
<path d="M12892 7114 c-43 -30 -21 -94 32 -94 22 0 46 28 46 55 0 20 -32 55
-50 55 -3 0 -16 -7 -28 -16z"/>
<path d="M12736 6851 c-38 -42 13 -108 59 -77 27 18 32 64 8 82 -25 19 -47 17
-67 -5z"/>
<path d="M11590 5654 c0 -5 7 -18 15 -28 8 -11 15 -16 15 -10 0 5 -7 18 -15
28 -8 11 -15 16 -15 10z"/>
<path d="M11690 5480 c6 -11 13 -20 16 -20 2 0 0 9 -6 20 -6 11 -13 20 -16 20
-2 0 0 -9 6 -20z"/>
<path d="M11800 5300 c6 -11 13 -20 16 -20 2 0 0 9 -6 20 -6 11 -13 20 -16 20
-2 0 0 -9 6 -20z"/>
<path d="M11880 5160 c6 -11 13 -20 16 -20 2 0 0 9 -6 20 -6 11 -13 20 -16 20
-2 0 0 -9 6 -20z"/>
<path d="M11269 6761 c-52 -52 -31 -130 38 -148 63 -15 127 58 103 118 -26 62
-94 77 -141 30z m114 -23 c24 -29 21 -65 -9 -95 -45 -45 -113 -14 -114 53 0
69 77 96 123 42z"/>
<path d="M11105 6241 c-16 -10 -46 -27 -65 -38 -19 -11 -75 -44 -123 -72 -49
-28 -90 -51 -92 -51 -2 0 -32 -17 -66 -38 -35 -22 -90 -53 -122 -71 -32 -18
-79 -45 -105 -61 -26 -16 -65 -39 -87 -51 -84 -45 -175 -102 -175 -108 0 -4 9
-17 21 -30 19 -21 28 -22 162 -21 78 0 211 3 294 7 l153 6 24 41 c13 23 34 59
46 81 12 22 59 103 104 180 114 194 136 233 136 239 0 13 -77 3 -105 -13z"/>
<path d="M10787 5082 c-21 -23 -22 -46 -1 -66 24 -24 61 -20 80 9 15 23 15 27
0 50 -20 30 -56 33 -79 7z"/>
<path d="M14516 6047 c3 -10 9 -15 12 -12 3 3 0 11 -7 18 -10 9 -11 8 -5 -6z"/>
<path d="M9060 5744 c-94 -25 -195 -107 -240 -194 -90 -173 -14 -409 160 -498
155 -78 320 -54 442 65 98 96 134 257 88 386 -46 128 -146 217 -274 244 -77
16 -107 15 -176 -3z m233 -132 c97 -67 134 -144 125 -258 -5 -62 -11 -72 -33
-54 -12 10 -14 23 -9 57 13 89 -53 194 -143 228 -53 21 -140 16 -179 -10 -19
-12 -29 -13 -45 -5 -17 10 -18 14 -7 27 29 36 90 53 170 49 65 -3 83 -8 121
-34z m-57 -98 c48 -27 70 -57 79 -106 10 -52 -8 -55 -63 -13 -26 20 -76 57
-111 81 -61 42 -63 44 -40 53 40 16 92 10 135 -15z m-305 -60 c7 -9 12 -36 10
-68 -7 -162 159 -273 307 -206 34 16 48 17 64 9 23 -13 21 -15 -47 -51 -54
-29 -152 -30 -215 -1 -92 41 -160 141 -160 235 0 89 13 115 41 82z m167 -115
c48 -34 89 -65 92 -69 3 -3 13 -9 23 -13 41 -15 5 -37 -64 -37 -68 0 -149 79
-149 146 0 19 3 34 6 34 3 0 44 -28 92 -61z"/>
<path d="M9589 4521 c-17 -18 -29 -40 -29 -56 0 -37 50 -85 89 -85 38 0 79 36
87 76 4 24 0 37 -21 62 -36 43 -84 44 -126 3z m106 -11 c3 -11 11 -20 16 -20
18 0 9 -54 -13 -77 -28 -30 -63 -29 -93 2 -28 27 -31 44 -12 64 10 11 9 12 -3
6 -8 -4 -2 4 14 19 36 32 82 35 91 6z"/>
<path d="M10520 4256 c0 -2 8 -10 18 -17 15 -13 16 -12 3 4 -13 16 -21 21 -21
13z"/>
<path d="M10571 4180 c14 -31 19 -36 19 -24 0 6 -7 19 -16 30 -14 18 -14 18
-3 -6z"/>
<path d="M10635 4070 c9 -16 18 -30 21 -30 2 0 -2 14 -11 30 -9 17 -18 30 -21
30 -2 0 2 -13 11 -30z"/>
<path d="M10730 3910 c6 -11 13 -20 16 -20 2 0 0 9 -6 20 -6 11 -13 20 -16 20
-2 0 0 -9 6 -20z"/>
<path d="M10829 3745 c17 -33 31 -51 31 -40 0 6 -10 21 -21 35 -13 17 -17 18
-10 5z"/>
<path d="M10925 3580 c9 -16 18 -30 21 -30 2 0 -2 14 -11 30 -9 17 -18 30 -21
30 -2 0 2 -13 11 -30z"/>
<path d="M10980 3491 c0 -6 4 -13 10 -16 6 -3 7 1 4 9 -7 18 -14 21 -14 7z"/>
<path d="M11040 3386 c0 -2 8 -10 18 -17 15 -13 16 -12 3 4 -13 16 -21 21 -21
13z"/>
<path d="M11080 3325 c0 -5 10 -21 21 -35 13 -17 17 -18 10 -5 -17 33 -31 51
-31 40z"/>
<path d="M11165 3180 c9 -16 18 -30 21 -30 2 0 -2 14 -11 30 -9 17 -18 30 -21
30 -2 0 2 -13 11 -30z"/>
<path d="M11220 3090 c6 -11 13 -20 16 -20 2 0 0 9 -6 20 -6 11 -13 20 -16 20
-2 0 0 -9 6 -20z"/>
<path d="M11290 2970 c6 -11 13 -20 16 -20 2 0 0 9 -6 20 -6 11 -13 20 -16 20
-2 0 0 -9 6 -20z"/>
<path d="M11320 2920 c6 -11 13 -20 16 -20 2 0 0 9 -6 20 -6 11 -13 20 -16 20
-2 0 0 -9 6 -20z"/>
<path d="M13571 5824 c-19 -8 -32 -17 -29 -20 8 -7 58 7 58 16 0 5 10 11 23
13 19 4 19 4 2 5 -11 1 -35 -5 -54 -14z"/>
<path d="M13480 5776 c0 -2 7 -7 16 -10 8 -3 12 -2 9 4 -6 10 -25 14 -25 6z"/>
<path d="M13568 5493 c7 -3 16 -2 19 1 4 3 -2 6 -13 5 -11 0 -14 -3 -6 -6z"/>
<path d="M14497 5353 c-15 -49 -39 -106 -52 -128 -33 -55 -56 -107 -50 -113 2
-3 9 6 15 19 6 13 21 42 34 64 32 51 89 208 84 230 -1 9 -16 -23 -31 -72z"/>
<path d="M13723 5183 c9 -2 23 -2 30 0 6 3 -1 5 -18 5 -16 0 -22 -2 -12 -5z"/>
<path d="M14337 5059 c-20 -27 -34 -49 -30 -49 11 0 73 74 73 88 0 17 -1 16
-43 -39z"/>
<path d="M13175 4991 c-3 -5 -1 -12 5 -16 5 -3 10 1 10 9 0 18 -6 21 -15 7z"/>
<path d="M14250 4965 c-19 -19 -42 -37 -52 -41 -18 -5 -26 -24 -10 -24 4 0 32
23 62 50 30 28 50 50 44 50 -5 0 -25 -16 -44 -35z"/>
<path d="M14114 4865 c-10 -8 -14 -14 -9 -14 6 0 19 6 29 14 11 8 15 15 10 15
-6 0 -19 -7 -30 -15z"/>
<path d="M12656 4485 c-9 -13 -16 -29 -16 -35 0 -6 38 -10 100 -10 90 0 105 3
150 28 27 15 50 30 50 35 0 4 -60 7 -134 7 -131 0 -134 0 -150 -25z"/>
<path d="M13498 4503 c34 -2 90 -2 125 0 34 2 6 3 -63 3 -69 0 -97 -1 -62 -3z"/>
<path d="M12631 4084 c0 -11 3 -14 6 -6 3 7 2 16 -1 19 -3 4 -6 -2 -5 -13z"/>
<path d="M13145 4030 l-40 -7 47 -2 c26 0 50 4 53 9 7 11 1 11 -60 0z"/>
<path d="M13587 4015 c-4 -8 -1 -17 6 -21 7 -4 9 -4 5 1 -4 4 -3 14 3 22 7 8
8 13 1 13 -5 0 -12 -7 -15 -15z"/>
<path d="M11914 2627 c-20 -18 -28 -35 -31 -73 -5 -47 -3 -51 29 -76 54 -41
97 -41 139 1 43 43 38 121 -10 158 -28 21 -97 16 -127 -10z"/>
<path d="M13448 4003 c7 -3 16 -2 19 1 4 3 -2 6 -13 5 -11 0 -14 -3 -6 -6z"/>
</g>
</svg>
